<svg width="512" height="512" viewBox="0 0 24 24" fill="none" xmlns="http://www.w3.org/2000/svg">
<path d="M9 18C7.34315 18 6 16.6569 6 15C6 13.3431 7.34315 12 9 12C10.6569 12 12 13.3431 12 15C12 16.6569 10.6569 18 9 18Z" stroke="#E6E6FA" stroke-width="2" stroke-linecap="round" stroke-linejoin="round"/>
<path d="M15 18C13.3431 18 12 16.6569 12 15C12 13.3431 13.3431 12 15 12C16.6569 12 18 13.3431 18 15C18 16.6569 16.6569 18 15 18Z" stroke="#E6E6FA" stroke-width="2" stroke-linecap="round" stroke-linejoin="round"/>
<path d="M12 6C10.3431 6 9 7.34315 9 9C9 10.6569 10.3431 12 12 12C13.6569 12 15 10.6569 15 9C15 7.34315 13.6569 6 12 6Z" stroke="#E6E6FA" stroke-width="2" stroke-linecap="round" stroke-linejoin="round"/>
<path d="M12 22C17.5228 22 22 17.5228 22 12C22 6.47715 17.5228 2 12 2C6.47715 2 2 6.47715 2 12C2 17.5228 6.47715 22 12 22Z" stroke="#E6E6FA" stroke-width="2" stroke-linecap="round" stroke-linejoin="round"/>
</svg>