<svg width="64" height="64" viewBox="0 0 24 24" fill="none" xmlns="http://www.w3.org/2000/svg">
<style>
    path {
        stroke: hsl(255 70% 85%);
        stroke-width: 1.5;
        stroke-linecap: round;
        stroke-linejoin: round;
    }
    @media (prefers-color-scheme: dark) {
        path {
            stroke: hsl(255 50% 50%);
        }
    }
</style>
<path d="M9 12H9.01"/>
<path d="M15 12H15.01"/>
<path d="M10 16C10.5 16.3 11.2 16.5 12 16.5C12.8 16.5 13.5 16.2 14 15.8"/>
<path d="M19 6.3C20.2 7.8 21 9.8 21 12C21 16.9706 16.9706 21 12 21C7.02944 21 3 16.9706 3 12C3 9.8 3.8 7.8 5 6.3"/>
<path d="M12 3C13.933 3 15.5 4.11929 15.5 5.5C15.5 6.88071 13.933 8 12 8C10.067 8 8.5 6.88071 8.5 5.5C8.5 4.11929 10.067 3 12 3Z"/>
</svg>
